<!-- Logo CHIFT professionnel -->
<svg width="48" height="48" viewBox="0 0 48 48" fill="none" xmlns="http://www.w3.org/2000/svg">
  <rect width="48" height="48" rx="12" fill="#0E6B85"/>
  <path d="M12 17.5C12 15.0147 14.0147 13 16.5 13H19.5C21.9853 13 24 15.0147 24 17.5V19.5C24 21.9853 21.9853 24 19.5 24H16.5C14.0147 24 12 21.9853 12 19.5V17.5Z" fill="white"/>
  <path d="M26 17.5C26 15.0147 28.0147 13 30.5 13H31.5C33.9853 13 36 15.0147 36 17.5V30.5C36 32.9853 33.9853 35 31.5 35H30.5C28.0147 35 26 32.9853 26 30.5V17.5Z" fill="white"/>
  <path d="M12 28.5C12 26.0147 14.0147 24 16.5 24H19.5C21.9853 24 24 26.0147 24 28.5V30.5C24 32.9853 21.9853 35 19.5 35H16.5C14.0147 35 12 32.9853 12 30.5V28.5Z" fill="#037ea0"/>
</svg>
